<svg width="15" height="19" viewBox="0 0 15 19" fill="none" xmlns="http://www.w3.org/2000/svg">
<path d="M8.13454 0.281287C7.81729 -0.0359669 7.34139 -0.115308 6.94479 0.201983C6.94479 0.201983 6.86549 0.201983 6.86549 0.281287C6.23094 1.07444 0.361504 8.21294 0.361504 11.8615C0.361504 15.8273 3.53416 19 7.5 19C11.4658 19 14.6385 15.8273 14.6385 11.8615C14.6385 8.21294 8.76909 1.07444 8.13454 0.281287Z" fill="url(#paint0_linear_9202_11)"/>
<path d="M5.70508 13.9842L10.4723 9.21698L9.35057 8.0953L4.58341 12.8625L5.70508 13.9842Z" fill="white"/>
<path d="M5.12049 10.2752C5.55853 10.2752 5.91364 9.92004 5.91364 9.482C5.91364 9.04395 5.55853 8.68884 5.12049 8.68884C4.68244 8.68884 4.32733 9.04395 4.32733 9.482C4.32733 9.92004 4.68244 10.2752 5.12049 10.2752Z" fill="white"/>
<path d="M9.87948 13.4479C10.3175 13.4479 10.6726 13.0928 10.6726 12.6547C10.6726 12.2167 10.3175 11.8616 9.87948 11.8616C9.44143 11.8616 9.08633 12.2167 9.08633 12.6547C9.08633 13.0928 9.44143 13.4479 9.87948 13.4479Z" fill="white"/>
<defs>
<linearGradient id="paint0_linear_9202_11" x1="1.90805" y1="16.3829" x2="13.0729" y2="5.22217" gradientUnits="userSpaceOnUse">
<stop stop-color="#34CDFA"/>
<stop offset="1" stop-color="#E8D9F1"/>
</linearGradient>
</defs>
</svg>
